<mxfile host="Electron" modified="2020-08-09T06:56:33.319Z" agent="5.0 (X11; Linux x86_64) AppleWebKit/537.36 (KHTML, like Gecko) draw.io/13.3.9 Chrome/83.0.4103.119 Electron/9.0.5 Safari/537.36" etag="ITAJm5bd5tzi5vFjVRcp" compressed="false" version="13.3.9" type="device">
  <diagram id="2NFi8XDmzRgp8Pa5xk1Z" name="Page-1">
    <mxGraphModel dx="716" dy="439" grid="1" gridSize="10" guides="0" tooltips="1" connect="1" arrows="1" fold="1" page="1" pageScale="1" pageWidth="850" pageHeight="1100" math="0" shadow="0">
      <root>
        <mxCell id="0" />
        <mxCell id="1" parent="0" />
        <mxCell id="RkWsNGdd_fQ8BpbVWcTB-14" value="" style="rounded=1;whiteSpace=wrap;html=1;strokeWidth=1;fillColor=none;" vertex="1" parent="1">
          <mxGeometry x="10" y="430" width="200" height="60" as="geometry" />
        </mxCell>
        <mxCell id="RkWsNGdd_fQ8BpbVWcTB-9" value="" style="rounded=0;whiteSpace=wrap;html=1;strokeWidth=1;fillColor=#f5f5f5;fontColor=#333333;strokeColor=none;" vertex="1" parent="1">
          <mxGeometry x="10" y="70" width="770" height="60" as="geometry" />
        </mxCell>
        <mxCell id="RkWsNGdd_fQ8BpbVWcTB-8" value="" style="rounded=0;whiteSpace=wrap;html=1;strokeWidth=1;fillColor=#f5f5f5;fontColor=#333333;strokeColor=none;" vertex="1" parent="1">
          <mxGeometry x="10" y="270" width="770" height="100" as="geometry" />
        </mxCell>
        <mxCell id="RkWsNGdd_fQ8BpbVWcTB-1" value="" style="endArrow=none;dashed=1;html=1;strokeWidth=1;fillColor=#e51400;strokeColor=#B20000;exitX=0;exitY=0;exitDx=0;exitDy=0;" edge="1" parent="1" source="qK9FB1MhkwIk1Y5yV3EE-4">
          <mxGeometry width="50" height="50" relative="1" as="geometry">
            <mxPoint x="130" y="460" as="sourcePoint" />
            <mxPoint x="120" y="260" as="targetPoint" />
          </mxGeometry>
        </mxCell>
        <mxCell id="jp7LAuQS7kOePJF9EJ---78" value="---" style="rounded=0;whiteSpace=wrap;html=1;fillColor=#ffe6cc;strokeColor=#d79b00;" parent="1" vertex="1">
          <mxGeometry x="140" y="300" width="290" height="20" as="geometry" />
        </mxCell>
        <mxCell id="jp7LAuQS7kOePJF9EJ---27" value="low memory area" style="rounded=0;whiteSpace=wrap;html=1;fillColor=#dae8fc;strokeColor=#6c8ebf;" parent="1" vertex="1">
          <mxGeometry x="120" y="240" width="260" height="20" as="geometry" />
        </mxCell>
        <mxCell id="jp7LAuQS7kOePJF9EJ---5" value="x86 32-bit virtual mem addr space" style="rounded=0;whiteSpace=wrap;html=1;fillColor=#f5f5f5;strokeColor=#666666;fontColor=#333333;" parent="1" vertex="1">
          <mxGeometry x="120" y="40" width="640" height="20" as="geometry" />
        </mxCell>
        <mxCell id="jp7LAuQS7kOePJF9EJ---6" value="0" style="text;html=1;align=left;verticalAlign=middle;resizable=0;points=[];autosize=1;" parent="1" vertex="1">
          <mxGeometry x="120" y="20" width="20" height="20" as="geometry" />
        </mxCell>
        <mxCell id="jp7LAuQS7kOePJF9EJ---7" value="4GB" style="text;html=1;align=left;verticalAlign=middle;resizable=0;points=[];autosize=1;" parent="1" vertex="1">
          <mxGeometry x="760" y="20" width="40" height="20" as="geometry" />
        </mxCell>
        <mxCell id="jp7LAuQS7kOePJF9EJ---8" value="loaddr~hiaddr --- ANON" style="rounded=0;whiteSpace=wrap;html=1;fillColor=#ffe6cc;strokeColor=#d79b00;" parent="1" vertex="1">
          <mxGeometry x="140" y="100" width="300" height="20" as="geometry" />
        </mxCell>
        <mxCell id="jp7LAuQS7kOePJF9EJ---9" value="" style="endArrow=none;html=1;fillColor=#e1d5e7;strokeColor=#9673a6;" parent="1" edge="1">
          <mxGeometry width="50" height="50" relative="1" as="geometry">
            <mxPoint x="140" y="180" as="sourcePoint" />
            <mxPoint x="140" y="160" as="targetPoint" />
          </mxGeometry>
        </mxCell>
        <mxCell id="jp7LAuQS7kOePJF9EJ---10" value="[8048000~8049000]" style="text;html=1;align=left;verticalAlign=middle;resizable=0;points=[];autosize=1;" parent="1" vertex="1">
          <mxGeometry x="140" y="140" width="120" height="20" as="geometry" />
        </mxCell>
        <mxCell id="jp7LAuQS7kOePJF9EJ---11" value="" style="endArrow=none;html=1;fillColor=#e1d5e7;strokeColor=#9673a6;strokeWidth=4;" parent="1" edge="1">
          <mxGeometry width="50" height="50" relative="1" as="geometry">
            <mxPoint x="430" y="180" as="sourcePoint" />
            <mxPoint x="430" y="160" as="targetPoint" />
          </mxGeometry>
        </mxCell>
        <mxCell id="jp7LAuQS7kOePJF9EJ---14" value="[7d400000~7d402000] [7d402000~7d403000] [7d404000~7d405000]" style="text;html=1;align=left;verticalAlign=middle;resizable=0;points=[];autosize=1;" parent="1" vertex="1">
          <mxGeometry x="430" y="140" width="380" height="20" as="geometry" />
        </mxCell>
        <mxCell id="jp7LAuQS7kOePJF9EJ---17" value="R--" style="text;html=1;align=left;verticalAlign=middle;resizable=0;points=[];autosize=1;" parent="1" vertex="1">
          <mxGeometry x="140" y="160" width="30" height="20" as="geometry" />
        </mxCell>
        <mxCell id="jp7LAuQS7kOePJF9EJ---18" value="R-X, R--, RW-" style="text;html=1;align=left;verticalAlign=middle;resizable=0;points=[];autosize=1;" parent="1" vertex="1">
          <mxGeometry x="440" y="160" width="90" height="20" as="geometry" />
        </mxCell>
        <mxCell id="jp7LAuQS7kOePJF9EJ---19" value="wine-preloader&lt;br&gt;segments" style="text;html=1;align=right;verticalAlign=middle;resizable=0;points=[];autosize=1;" parent="1" vertex="1">
          <mxGeometry x="20" y="150" width="90" height="30" as="geometry" />
        </mxCell>
        <mxCell id="jp7LAuQS7kOePJF9EJ---20" value="QEMU reserves&lt;br&gt;for wine-preloader" style="text;html=1;align=right;verticalAlign=middle;resizable=0;points=[];autosize=1;" parent="1" vertex="1">
          <mxGeometry y="90" width="110" height="30" as="geometry" />
        </mxCell>
        <mxCell id="jp7LAuQS7kOePJF9EJ---22" value="[8048000" style="text;html=1;align=left;verticalAlign=middle;resizable=0;points=[];autosize=1;" parent="1" vertex="1">
          <mxGeometry x="140" y="80" width="70" height="20" as="geometry" />
        </mxCell>
        <mxCell id="jp7LAuQS7kOePJF9EJ---23" value="7e405000] 7d405000+1E6(16MB reserved for brk)" style="text;html=1;align=left;verticalAlign=middle;resizable=0;points=[];autosize=1;" parent="1" vertex="1">
          <mxGeometry x="440" y="80" width="280" height="20" as="geometry" />
        </mxCell>
        <mxCell id="jp7LAuQS7kOePJF9EJ---24" value="&lt;font style=&quot;font-size: 12px&quot;&gt;wine-preloader&lt;br&gt;reserves for&lt;br&gt;Win32 user&lt;/font&gt;" style="text;html=1;align=right;verticalAlign=middle;resizable=0;points=[];autosize=1;" parent="1" vertex="1">
          <mxGeometry x="20" y="220" width="90" height="50" as="geometry" />
        </mxCell>
        <mxCell id="jp7LAuQS7kOePJF9EJ---25" value="" style="endArrow=none;html=1;strokeWidth=4;fillColor=#dae8fc;strokeColor=#6c8ebf;" parent="1" edge="1">
          <mxGeometry width="50" height="50" relative="1" as="geometry">
            <mxPoint x="120" y="260" as="sourcePoint" />
            <mxPoint x="120" y="240" as="targetPoint" />
          </mxGeometry>
        </mxCell>
        <mxCell id="jp7LAuQS7kOePJF9EJ---26" value="[0~1E4] low 64K, [1E4~110000] DOS area" style="text;html=1;align=left;verticalAlign=middle;resizable=0;points=[];autosize=1;" parent="1" vertex="1">
          <mxGeometry x="120" y="200" width="240" height="20" as="geometry" />
        </mxCell>
        <mxCell id="jp7LAuQS7kOePJF9EJ---30" value="68000000]" style="text;html=1;align=left;verticalAlign=middle;resizable=0;points=[];autosize=1;" parent="1" vertex="1">
          <mxGeometry x="380" y="220" width="70" height="20" as="geometry" />
        </mxCell>
        <mxCell id="jp7LAuQS7kOePJF9EJ---53" value="wine reserves for&lt;br&gt;Win32 kernel" style="text;html=1;align=right;verticalAlign=middle;resizable=0;points=[];autosize=1;" parent="1" vertex="1">
          <mxGeometry y="390" width="110" height="30" as="geometry" />
        </mxCell>
        <mxCell id="jp7LAuQS7kOePJF9EJ---54" value="there are a lot of holes" style="rounded=0;whiteSpace=wrap;html=1;fillColor=#f8cecc;strokeColor=#b85450;" parent="1" vertex="1">
          <mxGeometry x="450" y="400" width="310" height="20" as="geometry" />
        </mxCell>
        <mxCell id="jp7LAuQS7kOePJF9EJ---56" value="" style="endArrow=classic;html=1;strokeWidth=1;fillColor=#dae8fc;strokeColor=#6c8ebf;" parent="1" edge="1">
          <mxGeometry width="50" height="50" relative="1" as="geometry">
            <mxPoint x="120" y="240" as="sourcePoint" />
            <mxPoint x="120" y="210" as="targetPoint" />
            <Array as="points">
              <mxPoint x="120" y="220" />
              <mxPoint x="110" y="220" />
              <mxPoint x="110" y="210" />
            </Array>
          </mxGeometry>
        </mxCell>
        <mxCell id="jp7LAuQS7kOePJF9EJ---57" value="[110000" style="text;html=1;align=left;verticalAlign=middle;resizable=0;points=[];autosize=1;" parent="1" vertex="1">
          <mxGeometry x="120" y="220" width="60" height="20" as="geometry" />
        </mxCell>
        <mxCell id="jp7LAuQS7kOePJF9EJ---58" value="" style="endArrow=none;html=1;strokeWidth=1;strokeColor=#FFFFFF;" parent="1" edge="1">
          <mxGeometry width="50" height="50" relative="1" as="geometry">
            <mxPoint x="760" y="420" as="sourcePoint" />
            <mxPoint x="760" y="400" as="targetPoint" />
          </mxGeometry>
        </mxCell>
        <mxCell id="jp7LAuQS7kOePJF9EJ---59" value="" style="endArrow=none;dashed=1;html=1;strokeWidth=1;fillColor=#f8cecc;strokeColor=#b85450;" parent="1" edge="1">
          <mxGeometry width="50" height="50" relative="1" as="geometry">
            <mxPoint x="760" y="420" as="sourcePoint" />
            <mxPoint x="760" y="400" as="targetPoint" />
          </mxGeometry>
        </mxCell>
        <mxCell id="jp7LAuQS7kOePJF9EJ---60" value="[82000000" style="text;html=1;align=left;verticalAlign=middle;resizable=0;points=[];autosize=1;" parent="1" vertex="1">
          <mxGeometry x="450" y="380" width="70" height="20" as="geometry" />
        </mxCell>
        <mxCell id="jp7LAuQS7kOePJF9EJ---61" value="stack base&lt;br&gt;~fffe0000]" style="text;html=1;align=left;verticalAlign=middle;resizable=0;points=[];autosize=1;" parent="1" vertex="1">
          <mxGeometry x="760" y="370" width="70" height="30" as="geometry" />
        </mxCell>
        <mxCell id="jp7LAuQS7kOePJF9EJ---63" value="" style="rounded=0;whiteSpace=wrap;html=1;fillColor=#dae8fc;strokeColor=#6c8ebf;" parent="1" vertex="1">
          <mxGeometry x="440" y="240" width="10" height="20" as="geometry" />
        </mxCell>
        <mxCell id="jp7LAuQS7kOePJF9EJ---64" value="[7f000000~82000000]" style="text;html=1;align=left;verticalAlign=middle;resizable=0;points=[];autosize=1;" parent="1" vertex="1">
          <mxGeometry x="450" y="220" width="130" height="20" as="geometry" />
        </mxCell>
        <mxCell id="jp7LAuQS7kOePJF9EJ---65" value="top-down allocations, shared heap, virtual heap" style="text;html=1;align=left;verticalAlign=middle;resizable=0;points=[];autosize=1;" parent="1" vertex="1">
          <mxGeometry x="460" y="240" width="270" height="20" as="geometry" />
        </mxCell>
        <mxCell id="jp7LAuQS7kOePJF9EJ---67" value="" style="endArrow=none;dashed=1;html=1;strokeWidth=1;fillColor=#f5f5f5;strokeColor=#666666;" parent="1" edge="1">
          <mxGeometry width="50" height="50" relative="1" as="geometry">
            <mxPoint x="100" y="70" as="sourcePoint" />
            <mxPoint x="780" y="70" as="targetPoint" />
          </mxGeometry>
        </mxCell>
        <mxCell id="jp7LAuQS7kOePJF9EJ---68" value="" style="endArrow=none;dashed=1;html=1;strokeWidth=1;fillColor=#f5f5f5;strokeColor=#666666;" parent="1" edge="1">
          <mxGeometry width="50" height="50" relative="1" as="geometry">
            <mxPoint x="99.99999999999989" y="130" as="sourcePoint" />
            <mxPoint x="780" y="130" as="targetPoint" />
          </mxGeometry>
        </mxCell>
        <mxCell id="jp7LAuQS7kOePJF9EJ---69" value="" style="endArrow=none;dashed=1;html=1;strokeWidth=1;fillColor=#f5f5f5;strokeColor=#666666;" parent="1" edge="1">
          <mxGeometry width="50" height="50" relative="1" as="geometry">
            <mxPoint x="99.99999999999989" y="190" as="sourcePoint" />
            <mxPoint x="780" y="190" as="targetPoint" />
          </mxGeometry>
        </mxCell>
        <mxCell id="jp7LAuQS7kOePJF9EJ---70" value="" style="endArrow=none;dashed=1;html=1;strokeWidth=1;fillColor=#f5f5f5;strokeColor=#666666;" parent="1" edge="1">
          <mxGeometry width="50" height="50" relative="1" as="geometry">
            <mxPoint x="99.99999999999989" y="370" as="sourcePoint" />
            <mxPoint x="780" y="370" as="targetPoint" />
          </mxGeometry>
        </mxCell>
        <mxCell id="jp7LAuQS7kOePJF9EJ---75" value="" style="endArrow=none;html=1;strokeWidth=4;fillColor=#dae8fc;strokeColor=#6c8ebf;" parent="1" edge="1">
          <mxGeometry width="50" height="50" relative="1" as="geometry">
            <mxPoint x="119.99999999999977" y="320" as="sourcePoint" />
            <mxPoint x="119.99999999999977" y="300" as="targetPoint" />
          </mxGeometry>
        </mxCell>
        <mxCell id="jp7LAuQS7kOePJF9EJ---76" value="" style="endArrow=none;html=1;fillColor=#e1d5e7;strokeColor=#9673a6;" parent="1" edge="1">
          <mxGeometry width="50" height="50" relative="1" as="geometry">
            <mxPoint x="140" y="320" as="sourcePoint" />
            <mxPoint x="140" y="300" as="targetPoint" />
          </mxGeometry>
        </mxCell>
        <mxCell id="jp7LAuQS7kOePJF9EJ---77" value="" style="endArrow=none;html=1;fillColor=#e1d5e7;strokeColor=#9673a6;strokeWidth=4;" parent="1" edge="1">
          <mxGeometry width="50" height="50" relative="1" as="geometry">
            <mxPoint x="430" y="320" as="sourcePoint" />
            <mxPoint x="430" y="300" as="targetPoint" />
          </mxGeometry>
        </mxCell>
        <mxCell id="jp7LAuQS7kOePJF9EJ---79" value="R--" style="text;html=1;align=left;verticalAlign=middle;resizable=0;points=[];autosize=1;" parent="1" vertex="1">
          <mxGeometry x="150" y="280" width="30" height="20" as="geometry" />
        </mxCell>
        <mxCell id="jp7LAuQS7kOePJF9EJ---80" value="---" style="text;html=1;align=left;verticalAlign=middle;resizable=0;points=[];autosize=1;" parent="1" vertex="1">
          <mxGeometry x="120" y="280" width="30" height="20" as="geometry" />
        </mxCell>
        <mxCell id="jp7LAuQS7kOePJF9EJ---82" value="R-X, R--, RW-" style="text;html=1;align=left;verticalAlign=middle;resizable=0;points=[];autosize=1;" parent="1" vertex="1">
          <mxGeometry x="440" y="280" width="90" height="20" as="geometry" />
        </mxCell>
        <mxCell id="jp7LAuQS7kOePJF9EJ---85" value="" style="endArrow=classic;html=1;strokeColor=#9673a6;strokeWidth=1;fillColor=#e1d5e7;" parent="1" edge="1">
          <mxGeometry width="50" height="50" relative="1" as="geometry">
            <mxPoint x="140" y="300" as="sourcePoint" />
            <mxPoint x="150" y="290" as="targetPoint" />
            <Array as="points">
              <mxPoint x="140" y="290" />
            </Array>
          </mxGeometry>
        </mxCell>
        <mxCell id="jp7LAuQS7kOePJF9EJ---88" value="" style="endArrow=classic;html=1;strokeColor=#6c8ebf;strokeWidth=1;fillColor=#dae8fc;" parent="1" edge="1">
          <mxGeometry width="50" height="50" relative="1" as="geometry">
            <mxPoint x="120" y="300" as="sourcePoint" />
            <mxPoint x="120" y="290" as="targetPoint" />
            <Array as="points">
              <mxPoint x="110" y="290" />
            </Array>
          </mxGeometry>
        </mxCell>
        <mxCell id="jp7LAuQS7kOePJF9EJ---89" value="" style="endArrow=classic;html=1;strokeColor=#9673a6;strokeWidth=1;fillColor=#e1d5e7;" parent="1" edge="1">
          <mxGeometry width="50" height="50" relative="1" as="geometry">
            <mxPoint x="430" y="300" as="sourcePoint" />
            <mxPoint x="440" y="290" as="targetPoint" />
            <Array as="points">
              <mxPoint x="430" y="290" />
            </Array>
          </mxGeometry>
        </mxCell>
        <mxCell id="qK9FB1MhkwIk1Y5yV3EE-1" value="&lt;div&gt;&lt;span&gt;before alloc&lt;/span&gt;&lt;/div&gt;&lt;div&gt;&lt;span&gt;&lt;/span&gt;&lt;span&gt;low&amp;nbsp;&lt;/span&gt;&lt;span&gt;memory area&lt;/span&gt;&lt;/div&gt;" style="text;html=1;align=right;verticalAlign=middle;resizable=0;points=[];autosize=1;" parent="1" vertex="1">
          <mxGeometry y="290" width="110" height="30" as="geometry" />
        </mxCell>
        <mxCell id="qK9FB1MhkwIk1Y5yV3EE-2" value="&lt;div&gt;&lt;span&gt;&lt;font color=&quot;#b20000&quot;&gt;after QEMU alloc&lt;/font&gt;&lt;/span&gt;&lt;/div&gt;&lt;div&gt;&lt;font color=&quot;#b20000&quot;&gt;&lt;span&gt;low&amp;nbsp;&lt;/span&gt;&lt;span&gt;memory area&lt;/span&gt;&lt;/font&gt;&lt;/div&gt;" style="text;html=1;align=right;verticalAlign=middle;resizable=0;points=[];autosize=1;" parent="1" vertex="1">
          <mxGeometry y="330" width="110" height="30" as="geometry" />
        </mxCell>
        <mxCell id="qK9FB1MhkwIk1Y5yV3EE-4" value="---" style="rounded=0;whiteSpace=wrap;html=1;fillColor=#e51400;strokeColor=#B20000;fontColor=#ffffff;" parent="1" vertex="1">
          <mxGeometry x="120" y="340" width="310" height="20" as="geometry" />
        </mxCell>
        <mxCell id="qK9FB1MhkwIk1Y5yV3EE-5" value="" style="endArrow=none;html=1;fillColor=#e1d5e7;strokeColor=#9673a6;strokeWidth=4;exitX=1;exitY=1;exitDx=0;exitDy=0;entryX=1;entryY=0;entryDx=0;entryDy=0;" parent="1" source="qK9FB1MhkwIk1Y5yV3EE-4" target="qK9FB1MhkwIk1Y5yV3EE-4" edge="1">
          <mxGeometry width="50" height="50" relative="1" as="geometry">
            <mxPoint x="450" y="330" as="sourcePoint" />
            <mxPoint x="450" y="310" as="targetPoint" />
          </mxGeometry>
        </mxCell>
        <mxCell id="RkWsNGdd_fQ8BpbVWcTB-2" value="" style="endArrow=none;dashed=1;html=1;strokeWidth=1;fillColor=#e51400;strokeColor=#B20000;exitX=1;exitY=0;exitDx=0;exitDy=0;exitPerimeter=0;" edge="1" parent="1" source="RkWsNGdd_fQ8BpbVWcTB-4">
          <mxGeometry width="50" height="50" relative="1" as="geometry">
            <mxPoint x="380" y="420" as="sourcePoint" />
            <mxPoint x="380" y="260" as="targetPoint" />
          </mxGeometry>
        </mxCell>
        <mxCell id="RkWsNGdd_fQ8BpbVWcTB-3" value="" style="endArrow=none;dashed=1;html=1;strokeWidth=1;fillColor=#e51400;strokeColor=#B20000;exitX=1;exitY=1;exitDx=0;exitDy=0;exitPerimeter=0;entryX=0;entryY=1;entryDx=0;entryDy=0;" edge="1" parent="1" source="RkWsNGdd_fQ8BpbVWcTB-4" target="jp7LAuQS7kOePJF9EJ---63">
          <mxGeometry width="50" height="50" relative="1" as="geometry">
            <mxPoint x="440" y="340" as="sourcePoint" />
            <mxPoint x="520" y="320" as="targetPoint" />
            <Array as="points" />
          </mxGeometry>
        </mxCell>
        <mxCell id="RkWsNGdd_fQ8BpbVWcTB-4" value="" style="shape=curlyBracket;whiteSpace=wrap;html=1;rounded=1;rotation=-90;strokeWidth=1;" vertex="1" parent="1">
          <mxGeometry x="400" y="380" width="20" height="60" as="geometry" />
        </mxCell>
        <mxCell id="RkWsNGdd_fQ8BpbVWcTB-5" value="[68000000~7f000000]&lt;br&gt;here supposed to load .so needed by wine&lt;br&gt;&lt;b&gt;&lt;font color=&quot;#b20000&quot;&gt;but&lt;/font&gt;&lt;/b&gt; in QEMU only [7d405000~7f000000] left" style="text;html=1;align=center;verticalAlign=middle;resizable=0;points=[];autosize=1;" vertex="1" parent="1">
          <mxGeometry x="285" y="420" width="250" height="50" as="geometry" />
        </mxCell>
        <mxCell id="RkWsNGdd_fQ8BpbVWcTB-6" value="" style="endArrow=none;dashed=1;html=1;strokeWidth=1;fillColor=#f5f5f5;strokeColor=#666666;" edge="1" parent="1">
          <mxGeometry width="50" height="50" relative="1" as="geometry">
            <mxPoint x="99.99999999999989" y="270" as="sourcePoint" />
            <mxPoint x="780" y="270" as="targetPoint" />
          </mxGeometry>
        </mxCell>
        <mxCell id="RkWsNGdd_fQ8BpbVWcTB-11" value="&lt;b&gt;Legend&lt;/b&gt;" style="text;html=1;align=center;verticalAlign=middle;resizable=0;points=[];autosize=1;" vertex="1" parent="1">
          <mxGeometry x="10" y="450" width="60" height="20" as="geometry" />
        </mxCell>
        <mxCell id="RkWsNGdd_fQ8BpbVWcTB-13" value="this background means extra steps in QEMU" style="rounded=0;whiteSpace=wrap;html=1;strokeWidth=1;fillColor=#f5f5f5;fontColor=#333333;strokeColor=none;" vertex="1" parent="1">
          <mxGeometry x="70" y="440" width="130" height="40" as="geometry" />
        </mxCell>
      </root>
    </mxGraphModel>
  </diagram>
</mxfile>
